# xmcd
#
# Track frame offsets: 
#        150
#        26752
#        52935
#        75162
#        97840
#        118232
#        143837
#        168170
#        191175
#        208692
#        227252
#        241420
#        261890
#        275827
#
# Disc length: 3984 seconds
#
# Revision: 25
# Processed by: cddbd v1.5.2PL0 Copyright (c) Steve Scherf et al.
# Submitted via: ExactAudioCopyFreeDBPlugin 1.0
#
DISCID=b90f8e0e
DTITLE=Mark Knopfler - Shangri-La
DYEAR=2004
DGENRE=Rock
TTITLE0=5.15 A.M.
TTITLE1=Boom, Like That
TTITLE2=Sucker Row
TTITLE3=The Trawlerman's Song
TTITLE4=Back to Tupelo
TTITLE5=Our Shangri-La
TTITLE6=Everybody Pays
TTITLE7=Song for Sonny Liston
TTITLE8=Whoop De Doo
TTITLE9=Postcards from Paraguay
TTITLE10=All That Matters
TTITLE11=Stand Up Guy
TTITLE12=Donegan's Gone
TTITLE13=Don't Crash the Ambulance
EXTD=ID3G:  53 YEAR: 2004
EXTT0=
EXTT1=
EXTT2=
EXTT3=
EXTT4=
EXTT5=
EXTT6=
EXTT7=
EXTT8=
EXTT9=
EXTT10=
EXTT11=
EXTT12=
EXTT13=
PLAYORDER=
